<svg
  width="256"
  height="256"
  viewBox="0 0 256 256"
  fill="none"
  xmlns="http://www.w3.org/2000/svg"
>
  <path
    d="M89.223 200.712C83.134 199.16 77.0945 196.839 71.203 193.673L41.496 211.027L23.8175 193.348L39.8785 163.342C36.7616 157.866 34.3153 152.034 32.5925 145.973L0 137.12V112.075L32.4185 102.553C34.0825 96.5095 36.4635 90.6355 39.5685 85.079L23.0805 55.601L40.76 37.9225L70.474 54.6135C76.1425 51.4935 81.956 49.155 87.82 47.542L96.9885 14.105H122.034L131.469 48.243C136.974 49.9303 142.283 52.1998 147.307 55.013L178.508 37.1855L196.186 54.8645L178.449 86.361C183 94.726 186.099 104.092 187.317 114.221H156.03C149.732 83.032 113.716 65.3205 84.515 82.1555C52.398 100.671 52.398 147.211 84.515 165.727C93.2965 170.789 102.694 172.723 111.715 172.11V211.851H92.43L89.223 200.712Z"
    fill="#007ACC"
  />
  <g clip-path="url(#clip0_4056_47)">
    <path
      d="M118 121V256H253V121H118ZM195.637 179.596H176.438V239.068H165.864V179.596H146.705V169.761H195.637L195.637 179.596ZM234.98 233.005C228.535 241.403 210.048 242.685 199.298 235.698V222.552C205.149 228.942 211.204 229.856 215.921 230.289C230.658 231.515 231.084 219.24 225.119 214.178C216.336 207.089 198.844 203.145 199.391 187.827C199.264 176.854 207.783 169.487 220.461 168.803C225.265 168.543 232.114 168.842 236.421 171.624V183.981C226.312 174.707 205.273 177.194 210.375 190.961C214.992 199.46 230.871 200.296 237.553 213.756C240.389 221.328 238.81 228.014 234.98 233.005Z"
      fill="#007ACC"
    />
  </g>
  <defs>
    <clipPath id="clip0_4056_47">
      <rect
        width="135"
        height="135"
        fill="white"
        transform="translate(118 121)"
      />
    </clipPath>
  </defs>
</svg>
